<svg width="278" height="70" viewBox="0 0 278 70" fill="none" xmlns="http://www.w3.org/2000/svg">
<path d="M271.198 11.5949C253.88 11.5949 240.605 5.06658 220.811 5.06658C209.46 5.06658 198.113 5.06658 186.763 5.06658C173.524 5.06658 160.472 3.61589 147.271 3.61589C128.375 3.61589 107.195 2.85425 89.3161 4.50245C80.0171 5.3597 68.6915 5.79193 58.7502 5.79193C52.1792 5.79193 46.7704 7.13164 39.6843 7.24271C-0.703325 7.87539 4.27584 23.1275 4.27584 31.1796C4.27584 42.1092 -1.09859 55.8167 35.5985 63.4179C49.4367 66.2844 80.1852 65.2712 96.882 65.2712C119.378 65.2712 141.874 65.2712 164.369 65.2712C183.11 65.2712 251.694 67.8915 260.306 62.7324C275.034 53.9065 268.476 41.9936 268.476 32.4691C268.476 28.3233 265.445 22.6599 271.804 18.8484C279.227 14.4014 267.577 10.5084 254.858 7.96806" fill="#FFD146"/>
<path d="M271.198 11.5949C253.88 11.5949 240.605 5.06658 220.811 5.06658C209.46 5.06658 198.113 5.06658 186.763 5.06658C173.524 5.06658 160.472 3.61589 147.271 3.61589C128.375 3.61589 107.195 2.85425 89.3161 4.50245C80.0171 5.3597 68.6915 5.79193 58.7502 5.79193C52.1792 5.79193 46.7704 7.13164 39.6843 7.24271C-0.703325 7.87539 4.27584 23.1275 4.27584 31.1796C4.27584 42.1092 -1.09859 55.8167 35.5985 63.4179C49.4367 66.2844 80.1852 65.2712 96.882 65.2712C119.378 65.2712 141.874 65.2712 164.369 65.2712C183.11 65.2712 251.694 67.8915 260.306 62.7324C275.034 53.9065 268.476 41.9936 268.476 32.4691C268.476 28.3233 265.445 22.6599 271.804 18.8484C279.227 14.4014 267.577 10.5084 254.858 7.96806" stroke="#2B2B2B" stroke-width="6.282" stroke-linecap="round"/>
</svg>
